<svg width="500" height="300" xmlns="http://www.w3.org/2000/svg" xml:space="preserve" version="1.1">

 <g>
  <title>Layer 1</title>
  <g id="svg_1">
   <path id="svg_2" fill="#009EE2" d="m299.986,64.859c-5.236,0 -10.278,1.13 -14.987,3.358l-0.703,0.333l-0.629,-0.458c-4.843,-3.525 -10.572,-5.389 -16.57,-5.389c-3.194,0 -6.34,0.536 -9.35,1.594l-0.994,0.35l-0.555,-0.896c-7.499,-12.103 -20.458,-19.328 -34.668,-19.328c-20.946,0 -38.778,16.33 -40.594,37.178l-0.06,0.69l-0.604,0.339c-10.094,5.666 -16.365,16.364 -16.365,27.919c0,17.645 14.355,32 32.001,32c3.679,0 7.294,-0.624 10.747,-1.855l0.704,-0.251l0.574,0.477c5.3,4.401 12.017,6.824 18.913,6.824c7.547,0 14.739,-2.846 20.253,-8.014l0.912,-0.855l0.898,0.87c6.205,6.011 14.366,9.321 22.979,9.321c0.326,0 0.653,-0.004 0.982,-0.014c10.253,-0.299 19.621,-5.227 25.702,-13.518l0.397,-0.543l1.019,0.016c19.34,0 35.074,-15.734 35.074,-35.074s-15.736,-35.074 -35.076,-35.074zm-18.051,57.448c0,1.265 -1.029,2.294 -2.294,2.294l-60.315,0c-1.265,0 -2.295,-1.029 -2.295,-2.294l0,-7.867c0,-1.265 1.03,-2.295 2.295,-2.295l60.315,0c1.265,0 2.294,1.03 2.294,2.295l0,7.867zm0,-15.619c0,1.265 -1.029,2.294 -2.294,2.294l-60.315,0c-1.265,0 -2.295,-1.029 -2.295,-2.294l0,-7.867c0,-1.265 1.03,-2.295 2.295,-2.295l60.315,0c1.265,0 2.294,1.03 2.294,2.295l0,7.867zm0,-15.618c0,1.265 -1.029,2.294 -2.294,2.294l-60.315,0c-1.265,0 -2.295,-1.029 -2.295,-2.294l0,-7.867c0,-1.265 1.03,-2.294 2.295,-2.294l60.315,0c1.265,0 2.294,1.029 2.294,2.294l0,7.867z"/>
   <g id="svg_3">
    <path id="svg_4" fill="#40B0E4" d="m271.886,162.833c-8.412,0 -16.643,-2.249 -23.802,-6.502l-0.32,-0.189l-0.326,0.176c-6.281,3.397 -13.401,5.192 -20.593,5.192c-7.693,0 -15.264,-2.049 -21.891,-5.927l-0.213,-0.124l-0.241,0.046c-2.821,0.538 -5.711,0.81 -8.592,0.81c-25.237,0 -45.768,-20.531 -45.768,-45.768c0,-14.284 6.49,-27.487 17.804,-36.224l0.19,-0.147l0.05,-0.235c5.319,-25.081 27.755,-43.286 53.347,-43.286c15.85,0 30.32,6.491 40.747,18.279l0.222,0.251l0.335,-0.035c1.41,-0.143 2.844,-0.216 4.263,-0.216c6.314,0 12.641,1.45 18.294,4.194l0.229,0.111l0.245,-0.074c4.552,-1.377 9.303,-2.075 14.12,-2.075c26.932,0 48.842,21.911 48.842,48.842c0,24.67 -18.452,45.514 -42.921,48.485l-0.232,0.028l-0.163,0.167c-8.48,8.797 -19.93,13.841 -32.242,14.201c-0.467,0.014 -0.925,0.02 -1.384,0.02zm-23.648,-12.636c6.953,4.836 15.13,7.392 23.648,7.392c0.409,0 0.818,-0.006 1.228,-0.018c11.604,-0.338 22.215,-5.295 29.877,-13.957l0.175,-0.198l0.265,-0.021c22.514,-1.769 40.151,-20.86 40.151,-43.462c0,-24.039 -19.559,-43.597 -43.598,-43.597c-5.003,0 -9.898,0.838 -14.55,2.491l-0.279,0.099l-0.259,-0.144c-5.409,-3.011 -11.565,-4.602 -17.801,-4.602c-2.133,0 -4.278,0.187 -6.373,0.556l-0.385,0.067l-0.242,-0.306c-9.365,-11.818 -23.421,-18.596 -38.566,-18.596c-23.705,0 -44.588,17.635 -48.577,41.019l-0.045,0.271l-0.225,0.157c-10.832,7.585 -17.299,19.997 -17.299,33.202c0,22.345 18.179,40.523 40.524,40.523c3.213,0 6.418,-0.38 9.523,-1.131l0.275,-0.066l0.238,0.155c6.23,4.08 13.458,6.236 20.901,6.236c7.365,0 14.51,-2.102 20.663,-6.081l0.37,-0.239l0.361,0.25z"/>
    <path id="svg_5" fill="#35A8E0" d="m221.53,31.311c15.659,0 29.956,6.413 40.255,18.057l0.445,0.504l0.67,-0.068c1.389,-0.142 2.802,-0.213 4.197,-0.213c6.215,0 12.441,1.427 18.006,4.128l0.462,0.224l0.49,-0.148c4.489,-1.358 9.176,-2.047 13.931,-2.047c26.57,0 48.187,21.616 48.187,48.186c0,24.339 -18.205,44.902 -42.346,47.834l-0.463,0.056l-0.323,0.335c-8.362,8.674 -19.651,13.646 -31.79,14c-0.459,0.013 -0.911,0.02 -1.364,0.02c-8.293,0 -16.408,-2.217 -23.468,-6.41l-0.639,-0.379l-0.654,0.354c-6.184,3.345 -13.197,5.113 -20.281,5.113c-7.578,0 -15.033,-2.019 -21.56,-5.837l-0.424,-0.249l-0.483,0.092c-2.78,0.53 -5.629,0.799 -8.469,0.799c-24.875,0 -45.113,-20.238 -45.113,-45.113c0,-14.079 6.397,-27.093 17.549,-35.706l0.381,-0.294l0.1,-0.471c5.254,-24.781 27.419,-42.767 52.704,-42.767m-25.623,120.416c3.268,0 6.521,-0.387 9.677,-1.149c6.34,4.152 13.678,6.343 21.261,6.343c7.507,0 14.754,-2.136 21.019,-6.186c7.068,4.915 15.353,7.509 24.022,7.509c0.415,0 0.831,-0.006 1.248,-0.018c11.805,-0.344 22.56,-5.374 30.348,-14.178c22.899,-1.798 40.756,-21.071 40.756,-44.115c0,-24.401 -19.852,-44.253 -44.252,-44.253c-5.081,0 -10.046,0.85 -14.77,2.529c-5.511,-3.067 -11.762,-4.685 -18.119,-4.685c-2.176,0 -4.354,0.19 -6.488,0.566c-9.498,-11.988 -23.694,-18.845 -39.079,-18.845c-24.114,0 -45.175,17.829 -49.223,41.565c-11.019,7.716 -17.579,20.285 -17.579,33.739c0,22.706 18.473,41.178 41.179,41.178m25.623,-121.727c-25.9,0 -48.605,18.422 -53.988,43.805l0,0.001l0,0c-11.477,8.861 -18.059,22.254 -18.059,36.742c0,25.599 20.826,46.424 46.424,46.424c2.922,0 5.854,-0.276 8.715,-0.822l0,0c6.728,3.936 14.413,6.016 22.223,6.016c7.3,0 14.529,-1.822 20.905,-5.271l0,-0.001c7.261,4.314 15.607,6.594 24.137,6.594c0.465,0 0.93,-0.006 1.4,-0.02c12.485,-0.365 24.097,-5.479 32.698,-14.401l0,0c24.798,-3.01 43.498,-24.133 43.498,-49.134c0,-27.293 -22.204,-49.497 -49.497,-49.497c-4.883,0 -9.697,0.707 -14.311,2.103l0,0l-0.001,-0.001c-5.74,-2.786 -12.165,-4.258 -18.577,-4.258c-1.44,0 -2.897,0.074 -4.33,0.22l0,0c-10.552,-11.93 -25.197,-18.5 -41.237,-18.5l0,0zm-25.623,120.416c-21.983,0 -39.868,-17.885 -39.868,-39.868c0,-12.991 6.363,-25.202 17.02,-32.665l0.448,-0.314l0.092,-0.539c3.936,-23.074 24.541,-40.474 47.931,-40.474c14.943,0 28.813,6.688 38.052,18.348l0.485,0.613l0.769,-0.136c2.059,-0.362 4.165,-0.545 6.261,-0.545c6.124,0 12.169,1.563 17.481,4.52l0.518,0.288l0.559,-0.199c4.581,-1.627 9.402,-2.453 14.331,-2.453c23.678,0 42.941,19.264 42.941,42.942c0,22.262 -17.371,41.066 -39.548,42.809l-0.528,0.042l-0.351,0.396c-7.541,8.525 -17.983,13.403 -29.404,13.736c-0.404,0.012 -0.808,0.018 -1.21,0.018c-8.384,0 -16.432,-2.516 -23.274,-7.274l-0.722,-0.503l-0.738,0.478c-6.047,3.91 -13.069,5.976 -20.307,5.976c-7.316,0 -14.419,-2.12 -20.542,-6.129l-0.475,-0.311l-0.552,0.133c-3.055,0.737 -6.207,1.111 -9.369,1.111l0,0z"/>
   </g>
   <path id="svg_6" fill="#40B0E4" d="m271.886,149.722c-8.785,0 -17.107,-3.376 -23.435,-9.505l-0.45,-0.435l-0.456,0.428c-5.635,5.282 -12.987,8.191 -20.701,8.191c-7.05,0 -13.915,-2.477 -19.332,-6.976l-0.287,-0.239l-0.352,0.125c-3.523,1.257 -7.213,1.894 -10.967,1.894c-18.006,0 -32.656,-14.649 -32.656,-32.655c0,-11.791 6.399,-22.708 16.7,-28.49l0.302,-0.17l0.03,-0.345c1.846,-21.183 19.963,-37.776 41.247,-37.776c14.438,0 27.607,7.341 35.226,19.638l0.277,0.448l0.497,-0.175c3.08,-1.083 6.298,-1.631 9.566,-1.631c6.138,0 12.001,1.907 16.957,5.515l0.314,0.229l0.353,-0.167c4.796,-2.271 9.933,-3.421 15.267,-3.421c19.701,0 35.73,16.028 35.73,35.73s-16.029,35.73 -35.73,35.73l-0.69,-0.011l-0.197,0.269c-6.201,8.457 -15.755,13.481 -26.211,13.787c-0.336,0.007 -0.669,0.012 -1.002,0.012zm-23.869,-11.751l1.346,1.303c6.313,6.115 14.657,9.379 23.486,9.123c10.049,-0.292 19.232,-5.122 25.191,-13.249l0.597,-0.816l1.358,0.021c18.969,0 34.409,-15.44 34.409,-34.419c0,-18.979 -15.44,-34.419 -34.419,-34.419c-5.139,0 -10.086,1.109 -14.706,3.296l-1.055,0.5l-0.944,-0.687c-4.729,-3.444 -10.326,-5.264 -16.185,-5.264c-3.119,0 -6.192,0.524 -9.131,1.557l-1.492,0.524l-0.832,-1.344c-7.378,-11.908 -20.13,-19.018 -34.111,-19.018c-20.609,0 -38.154,16.067 -39.941,36.579l-0.09,1.035l-0.906,0.509c-9.888,5.55 -16.03,16.028 -16.03,27.347c0,17.284 14.061,31.344 31.345,31.344c3.604,0 7.146,-0.611 10.527,-1.817l1.055,-0.376l0.862,0.715c5.182,4.303 11.751,6.673 18.495,6.673c7.38,0 14.413,-2.783 19.804,-7.836l1.367,-1.281z"/>
   <path id="svg_7" fill="#40B0E4" d="m279.64,81.236c1.085,0 1.967,0.882 1.967,1.967l0,7.867c0,1.085 -0.882,1.967 -1.967,1.967l-60.314,0c-1.085,0 -1.967,-0.882 -1.967,-1.967l0,-7.867c0,-1.084 0.882,-1.967 1.967,-1.967l60.314,0m0,-0.656l-60.314,0c-1.442,0 -2.623,1.18 -2.623,2.622l0,7.867c0,1.442 1.18,2.622 2.623,2.622l60.314,0c1.442,0 2.623,-1.18 2.623,-2.622l0,-7.867c0,-1.442 -1.18,-2.622 -2.623,-2.622l0,0z"/>
   <path id="svg_8" fill="#40B0E4" d="m279.64,96.854c1.085,0 1.967,0.882 1.967,1.967l0,7.867c0,1.085 -0.882,1.967 -1.967,1.967l-60.314,0c-1.085,0 -1.967,-0.882 -1.967,-1.967l0,-7.867c0,-1.085 0.882,-1.967 1.967,-1.967l60.314,0m0,-0.655l-60.314,0c-1.442,0 -2.623,1.18 -2.623,2.623l0,7.867c0,1.442 1.18,2.623 2.623,2.623l60.314,0c1.442,0 2.623,-1.18 2.623,-2.623l0,-7.867c0,-1.443 -1.18,-2.623 -2.623,-2.623l0,0z"/>
   <path id="svg_9" fill="#40B0E4" d="m279.64,112.473c1.085,0 1.967,0.882 1.967,1.967l0,7.868c0,1.084 -0.882,1.966 -1.967,1.966l-60.314,0c-1.085,0 -1.967,-0.882 -1.967,-1.966l0,-7.868c0,-1.085 0.882,-1.967 1.967,-1.967l60.314,0m0,-0.656l-60.314,0c-1.442,0 -2.623,1.18 -2.623,2.622l0,7.868c0,1.442 1.18,2.622 2.623,2.622l60.314,0c1.442,0 2.623,-1.18 2.623,-2.622l0,-7.868c0,-1.442 -1.18,-2.622 -2.623,-2.622l0,0z"/>
   <path id="svg_10" fill="#40B0E4" d="m274.065,114.194c-2.309,0 -4.18,1.871 -4.18,4.179c0,2.309 1.871,4.18 4.18,4.18c2.309,0 4.18,-1.871 4.18,-4.18c0,-2.308 -1.871,-4.179 -4.18,-4.179zm0,6.986c-1.548,0 -2.807,-1.259 -2.807,-2.807c0,-1.547 1.259,-2.807 2.807,-2.807c1.548,0 2.807,1.259 2.807,2.807c0,1.548 -1.259,2.807 -2.807,2.807z"/>
   <g id="svg_11">
    <path id="svg_12" fill="#40B0E4" d="m221.861,121.91c0,0.216 -0.177,0.393 -0.393,0.393l-0.765,0c-0.217,0 -0.393,-0.177 -0.393,-0.393l0,-7.326c0,-0.216 0.177,-0.393 0.393,-0.393l0.765,0c0.216,0 0.393,0.177 0.393,0.393l0,7.326z"/>
    <path id="svg_13" fill="#40B0E4" d="m224.217,121.91c0,0.216 -0.177,0.393 -0.393,0.393l-0.765,0c-0.217,0 -0.394,-0.177 -0.394,-0.393l0,-7.326c0,-0.216 0.177,-0.393 0.394,-0.393l0.765,0c0.216,0 0.393,0.177 0.393,0.393l0,7.326z"/>
    <path id="svg_14" fill="#40B0E4" d="m226.574,121.91c0,0.216 -0.177,0.393 -0.393,0.393l-0.765,0c-0.216,0 -0.393,-0.177 -0.393,-0.393l0,-7.326c0,-0.216 0.177,-0.393 0.393,-0.393l0.765,0c0.216,0 0.393,0.177 0.393,0.393l0,7.326z"/>
   </g>
   <g id="svg_15">
    <path id="svg_16" fill="#40B0E4" d="m221.861,106.417c0,0.216 -0.177,0.394 -0.393,0.394l-0.765,0c-0.217,0 -0.393,-0.177 -0.393,-0.394l0,-7.326c0,-0.216 0.177,-0.393 0.393,-0.393l0.765,0c0.216,0 0.393,0.177 0.393,0.393l0,7.326z"/>
    <path id="svg_17" fill="#40B0E4" d="m224.217,106.417c0,0.216 -0.177,0.394 -0.393,0.394l-0.765,0c-0.217,0 -0.394,-0.177 -0.394,-0.394l0,-7.326c0,-0.216 0.177,-0.393 0.394,-0.393l0.765,0c0.216,0 0.393,0.177 0.393,0.393l0,7.326z"/>
    <path id="svg_18" fill="#40B0E4" d="m226.574,106.417c0,0.216 -0.177,0.394 -0.393,0.394l-0.765,0c-0.216,0 -0.393,-0.177 -0.393,-0.394l0,-7.326c0,-0.216 0.177,-0.393 0.393,-0.393l0.765,0c0.216,0 0.393,0.177 0.393,0.393l0,7.326z"/>
   </g>
   <g id="svg_19">
    <path id="svg_20" fill="#40B0E4" d="m221.861,90.799c0,0.216 -0.177,0.393 -0.393,0.393l-0.765,0c-0.217,0 -0.393,-0.177 -0.393,-0.393l0,-7.326c0,-0.216 0.177,-0.393 0.393,-0.393l0.765,0c0.216,0 0.393,0.177 0.393,0.393l0,7.326z"/>
    <path id="svg_21" fill="#40B0E4" d="m224.217,90.799c0,0.216 -0.177,0.393 -0.393,0.393l-0.765,0c-0.217,0 -0.394,-0.177 -0.394,-0.393l0,-7.326c0,-0.216 0.177,-0.393 0.394,-0.393l0.765,0c0.216,0 0.393,0.177 0.393,0.393l0,7.326z"/>
    <path id="svg_22" fill="#40B0E4" d="m226.574,90.799c0,0.216 -0.177,0.393 -0.393,0.393l-0.765,0c-0.216,0 -0.393,-0.177 -0.393,-0.393l0,-7.326c0,-0.216 0.177,-0.393 0.393,-0.393l0.765,0c0.216,0 0.393,0.177 0.393,0.393l0,7.326z"/>
   </g>
  </g>
  <g id="svg_23">
   <path id="svg_24" fill="#009EE2" d="m50.063,214.567c-3.946,0 -7.496,1.211 -10.649,3.632c-3.154,2.422 -5.688,5.986 -7.6,10.694c-1.913,4.708 -2.87,9.768 -2.87,15.178c0,4.993 1.024,8.699 3.072,11.12c2.047,2.422 5.313,3.632 9.797,3.632c4.364,0 9.416,-1.15 15.156,-3.452l0,11.658c-5.949,2.302 -11.927,3.452 -17.936,3.452c-7.593,0 -13.497,-2.234 -17.711,-6.703c-4.215,-4.469 -6.322,-10.799 -6.322,-18.989c0,-7.831 1.554,-15.043 4.663,-21.635c3.109,-6.591 7.264,-11.598 12.465,-15.02c5.201,-3.423 11.18,-5.135 17.936,-5.135c3.736,0 7.054,0.337 9.954,1.009c2.899,0.673 6.008,1.906 9.327,3.699l-5.291,11.21c-3.169,-1.764 -5.784,-2.929 -7.847,-3.497c-2.064,-0.568 -4.112,-0.853 -6.144,-0.853z"/>
   <path id="svg_25" fill="#009EE2" d="m76.23,269.584l-13.496,0l14.797,-69.77l13.496,0l-14.797,69.77z"/>
   <path id="svg_26" fill="#009EE2" d="m133.427,238.376c0,6.308 -1.054,11.897 -3.161,16.77c-2.107,4.873 -5.149,8.647 -9.124,11.322c-3.976,2.676 -8.699,4.013 -14.169,4.013c-5.829,0 -10.485,-1.756 -13.967,-5.269c-3.483,-3.512 -5.224,-8.183 -5.224,-14.012c0,-6.367 1.068,-12.039 3.206,-17.017c2.137,-4.977 5.224,-8.833 9.259,-11.568c4.036,-2.735 8.758,-4.103 14.169,-4.103c5.858,0 10.492,1.764 13.9,5.291c3.407,3.529 5.111,8.386 5.111,14.573zm-13.586,0c0,-5.889 -2.138,-8.833 -6.412,-8.833c-2.242,0 -4.252,0.912 -6.031,2.735c-1.779,1.823 -3.228,4.499 -4.349,8.026c-1.121,3.527 -1.682,7.159 -1.682,10.896c0,5.53 2.242,8.295 6.726,8.295c2.242,0 4.259,-0.919 6.053,-2.758c1.793,-1.838 3.19,-4.394 4.192,-7.667c1.002,-3.273 1.503,-6.837 1.503,-10.694z"/>
   <path id="svg_27" fill="#009EE2" d="m144.618,219.455l13.497,0l-6.143,29.28c-0.479,2.033 -0.718,3.81 -0.718,5.335c0,3.677 1.614,5.516 4.843,5.516c2.75,0 5.246,-1.704 7.488,-5.111c2.242,-3.408 4.005,-8.161 5.291,-14.259l4.395,-20.761l13.497,0l-10.627,50.13l-10.313,0l0.941,-9.281l-0.269,0c-4.335,6.786 -9.64,10.178 -15.918,10.178c-4.125,0 -7.279,-1.232 -9.461,-3.699c-2.183,-2.466 -3.273,-6.03 -3.273,-10.693c0,-2.78 0.359,-5.964 1.076,-9.551l5.694,-27.084z"/>
   <path id="svg_28" fill="#009EE2" d="m201.95,270.481c-4.394,0 -7.854,-1.599 -10.38,-4.798c-2.526,-3.198 -3.789,-7.682 -3.789,-13.451c0,-5.858 1.068,-11.456 3.206,-16.792c2.137,-5.336 4.955,-9.49 8.452,-12.466c3.497,-2.974 7.354,-4.461 11.569,-4.461c2.451,0 4.565,0.554 6.344,1.659c1.778,1.106 3.46,3.004 5.044,5.694l0.359,0l0.09,-1.256c0.179,-3.288 0.553,-6.202 1.121,-8.743l3.408,-16.053l13.497,0l-14.797,69.77l-10.268,0l0.628,-6.502l-0.179,0c-2.123,2.601 -4.342,4.484 -6.659,5.65c-2.318,1.166 -4.866,1.749 -7.646,1.749zm5.649,-10.896c1.973,0 3.894,-1.023 5.762,-3.071c1.868,-2.048 3.37,-4.775 4.506,-8.184c1.135,-3.407 1.704,-7.068 1.704,-10.985c0,-2.391 -0.561,-4.305 -1.682,-5.739c-1.121,-1.435 -2.653,-2.152 -4.596,-2.152c-2.033,0 -3.968,1.076 -5.807,3.229c-1.838,2.152 -3.303,4.992 -4.394,8.52c-1.092,3.527 -1.637,7.024 -1.637,10.492c0.002,5.261 2.048,7.89 6.144,7.89z"/>
   <path id="svg_29" fill="#475467" d="m276.14,250.214c0,6.248 -2.213,11.188 -6.637,14.819s-10.418,5.447 -17.98,5.447c-6.606,0 -11.927,-1.345 -15.962,-4.035l0,-12.286c5.769,3.228 11.12,4.843 16.052,4.843c3.348,0 5.964,-0.635 7.847,-1.905c1.884,-1.271 2.825,-3.012 2.825,-5.224c0,-1.285 -0.202,-2.414 -0.605,-3.386c-0.403,-0.971 -0.979,-1.876 -1.727,-2.713c-0.747,-0.836 -2.601,-2.361 -5.56,-4.573c-4.125,-2.96 -7.025,-5.889 -8.699,-8.788c-1.675,-2.899 -2.511,-6.024 -2.511,-9.372c0,-3.855 0.926,-7.301 2.78,-10.335c1.853,-3.034 4.491,-5.396 7.914,-7.085c3.422,-1.689 7.36,-2.533 11.815,-2.533c6.486,0 12.421,1.48 17.802,4.439l-4.888,10.447c-4.663,-2.212 -8.968,-3.318 -12.914,-3.318c-2.482,0 -4.514,0.673 -6.098,2.018c-1.585,1.346 -2.377,3.124 -2.377,5.336c0,1.824 0.493,3.416 1.48,4.775c0.986,1.36 3.198,3.161 6.636,5.403c3.616,2.392 6.322,5.029 8.116,7.914c1.794,2.886 2.691,6.256 2.691,10.112z"/>
   <path id="svg_30" fill="#475467" d="m301.635,270.481c-6.277,0 -11.15,-1.689 -14.618,-5.066c-3.468,-3.378 -5.201,-8.145 -5.201,-14.304c0,-6.188 1.233,-11.83 3.699,-16.927c2.467,-5.096 5.807,-8.982 10.021,-11.658c4.215,-2.675 8.982,-4.013 14.304,-4.013c5.291,0 9.416,1.218 12.376,3.654c2.959,2.437 4.438,5.777 4.438,10.022c0,5.59 -2.496,9.902 -7.488,12.935c-4.992,3.035 -12.121,4.552 -21.388,4.552l-2.287,0l-0.089,0.941l0,0.897c0,2.721 0.769,4.865 2.309,6.435c1.539,1.569 3.744,2.354 6.614,2.354c2.601,0 4.961,-0.284 7.084,-0.853c2.122,-0.567 4.692,-1.569 7.713,-3.004l0,10.179c-5.142,2.572 -10.971,3.856 -17.487,3.856zm7.354,-42.238c-2.631,0 -5.112,1.196 -7.443,3.588c-2.332,2.392 -3.856,5.306 -4.573,8.743l2.017,0c4.633,0 8.242,-0.725 10.828,-2.175c2.586,-1.449 3.879,-3.415 3.879,-5.896c0,-2.839 -1.569,-4.26 -4.708,-4.26z"/>
   <path id="svg_31" fill="#475467" d="m362.104,218.513c1.764,0 3.198,0.164 4.305,0.493l-2.959,13.003c-1.346,-0.478 -2.841,-0.717 -4.484,-0.717c-3.468,0 -6.509,1.367 -9.124,4.103c-2.616,2.735 -4.478,6.658 -5.583,11.771l-4.753,22.419l-13.496,0l10.627,-50.13l10.313,0l-0.941,9.281l0.269,0c4.393,-6.816 9.668,-10.223 15.826,-10.223z"/>
   <path id="svg_32" fill="#475467" d="m378.811,256.088c1.644,-4.574 3.02,-7.906 4.125,-9.999l13.317,-26.635l14.483,0l-27.083,50.13l-14.482,0l-6.188,-50.13l13.227,0l2.018,26.275c0.209,3.977 0.315,7.429 0.315,10.358l0.268,0l0,0.001z"/>
   <path id="svg_33" fill="#475467" d="m424.709,270.481c-6.277,0 -11.15,-1.689 -14.618,-5.066c-3.468,-3.378 -5.201,-8.145 -5.201,-14.304c0,-6.188 1.233,-11.83 3.699,-16.927c2.467,-5.096 5.807,-8.982 10.022,-11.658c4.215,-2.675 8.982,-4.013 14.304,-4.013c5.291,0 9.416,1.218 12.376,3.654c2.959,2.437 4.438,5.777 4.438,10.022c0,5.59 -2.496,9.902 -7.488,12.935c-4.992,3.035 -12.121,4.552 -21.388,4.552l-2.287,0l-0.089,0.941l0,0.897c0,2.721 0.768,4.865 2.309,6.435c1.539,1.569 3.744,2.354 6.614,2.354c2.601,0 4.961,-0.284 7.084,-0.853c2.122,-0.567 4.692,-1.569 7.713,-3.004l0,10.179c-5.144,2.572 -10.973,3.856 -17.488,3.856zm7.353,-42.238c-2.631,0 -5.112,1.196 -7.443,3.588c-2.332,2.392 -3.856,5.306 -4.573,8.743l2.018,0c4.633,0 8.242,-0.725 10.828,-2.175c2.586,-1.449 3.879,-3.415 3.879,-5.896c-0.001,-2.839 -1.57,-4.26 -4.709,-4.26z"/>
   <path id="svg_34" fill="#475467" d="m485.178,218.513c1.764,0 3.198,0.164 4.305,0.493l-2.959,13.003c-1.346,-0.478 -2.841,-0.717 -4.484,-0.717c-3.468,0 -6.509,1.367 -9.124,4.103c-2.616,2.735 -4.477,6.658 -5.583,11.771l-4.753,22.419l-13.496,0l10.627,-50.13l10.313,0l-0.941,9.281l0.269,0c4.393,-6.816 9.668,-10.223 15.826,-10.223z"/>
  </g>
 </g>
</svg>